<?xml version="1.0" encoding="UTF-8"?>
<svg version="1.1" xmlns="http://www.w3.org/2000/svg" width="521" height="498">
<path d="M0 0 C171.93 0 343.86 0 521 0 C521 164.34 521 328.68 521 498 C349.07 498 177.14 498 0 498 C0 333.66 0 169.32 0 0 Z " fill="#010101" transform="translate(0,0)"/>
<path d="M0 0 C6.93 0 13.86 0 21 0 C21 0.66 21 1.32 21 2 C21.99 2.33 22.98 2.66 24 3 C24 16.2 24 29.4 24 43 C36.70002085 42.88132342 36.70002085 42.88132342 49.3996582 42.72973633 C50.9916931 42.72097457 52.5837347 42.7133299 54.17578125 42.70703125 C55.41587952 42.6840094 55.41587952 42.6840094 56.68103027 42.66052246 C59.0793457 42.65942383 59.0793457 42.65942383 63 43 C63.99 43.99 64.98 44.98 66 46 C66 52.93 66 59.86 66 67 C52.14 67 38.28 67 24 67 C24 81.52 24 96.04 24 111 C37.07405699 110.92083482 37.07405699 110.92083482 50.14794922 110.81982422 C51.783526 110.81398456 53.41910568 110.80888776 55.0546875 110.8046875 C56.33484741 110.7893396 56.33484741 110.7893396 57.64086914 110.77368164 C59.76192133 110.77305019 61.88253507 110.87669115 64 111 C66.44986932 113.44986932 66.25631311 114.137078 66.265625 117.5 C66.26820313 118.386875 66.27078125 119.27375 66.2734375 120.1875 C66.26570312 121.115625 66.25796875 122.04375 66.25 123 C66.25773438 123.928125 66.26546875 124.85625 66.2734375 125.8125 C66.27085937 126.699375 66.26828125 127.58625 66.265625 128.5 C66.26336914 129.3146875 66.26111328 130.129375 66.25878906 130.96875 C66 133 66 133 64 135 C60.98777093 135.17541472 58.06612994 135.23141683 55.0546875 135.1953125 C54.27037354 135.19329834 53.48605957 135.19128418 52.67797852 135.18920898 C49.74359299 135.17873207 46.80929072 135.15080952 43.875 135.125 C37.31625 135.08375 30.7575 135.0425 24 135 C24 149.52 24 164.04 24 179 C37.86 179 51.72 179 66 179 C66 186.26 66 193.52 66 201 C65.34 201 64.68 201 64 201 C64 201.66 64 202.32 64 203 C50.8 203 37.6 203 24 203 C24 216.2 24 229.4 24 243 C23.01 243 22.02 243 21 243 C21 243.99 21 244.98 21 246 C14.07 246 7.14 246 0 246 C0 231.81 0 217.62 0 203 C-14.85 203 -29.7 203 -45 203 C-44.88125095 216.07415996 -44.88125095 216.07415996 -44.72973633 229.14794922 C-44.72097686 230.7835227 -44.71333165 232.4191027 -44.70703125 234.0546875 C-44.6840094 235.33484741 -44.6840094 235.33484741 -44.66052246 236.64086914 C-44.65942383 239.10107422 -44.65942383 239.10107422 -45 243 C-48.10085571 245.06723714 -48.72931681 245.24497423 -52.23046875 245.1953125 C-53.43413086 245.18564453 -53.43413086 245.18564453 -54.66210938 245.17578125 C-55.91217773 245.15064453 -55.91217773 245.15064453 -57.1875 245.125 C-58.03248047 245.11597656 -58.87746094 245.10695313 -59.74804688 245.09765625 C-61.83215243 245.07410703 -63.91611217 245.03823647 -66 245 C-66 244.34 -66 243.68 -66 243 C-66.66 243 -67.32 243 -68 243 C-68 229.8 -68 216.6 -68 203 C-82.85 203 -97.7 203 -113 203 C-113 216.86 -113 230.72 -113 245 C-119.6 245 -126.2 245 -133 245 C-136 242 -136 242 -136.34057617 238.0793457 C-136.33982739 236.44474736 -136.32330909 234.81009816 -136.29296875 233.17578125 C-136.28994751 232.41213257 -136.28692627 231.64848389 -136.28381348 230.86169434 C-136.26812923 228.01182521 -136.22624508 225.1621489 -136.1875 222.3125 C-136.125625 215.939375 -136.06375 209.56625 -136 203 C-149.53 203 -163.06 203 -177 203 C-177 202.34 -177 201.68 -177 201 C-177.66 201 -178.32 201 -179 201 C-179 193.74 -179 186.48 -179 179 C-164.81 179 -150.62 179 -136 179 C-136 164.48 -136 149.96 -136 135 C-149.40315652 135.07916733 -149.40315652 135.07916733 -162.80615234 135.18017578 C-164.48274482 135.18601537 -166.15934012 135.19111219 -167.8359375 135.1953125 C-168.71096924 135.20554443 -169.58600098 135.21577637 -170.48754883 135.22631836 C-172.65967622 135.22694924 -174.83137959 135.12338291 -177 135 C-179 133 -179 133 -179.22705078 130.93701172 C-179.21657715 130.10959473 -179.20610352 129.28217773 -179.1953125 128.4296875 C-179.18886719 127.53378906 -179.18242187 126.63789063 -179.17578125 125.71484375 C-179.15902344 124.77769531 -179.14226562 123.84054688 -179.125 122.875 C-179.11597656 121.93011719 -179.10695312 120.98523438 -179.09765625 120.01171875 C-179.07404522 117.67422708 -179.04111516 115.33723877 -179 113 C-178.34 113 -177.68 113 -177 113 C-177 112.34 -177 111.68 -177 111 C-163.8 111 -150.6 111 -137 111 C-136.67 96.48 -136.34 81.96 -136 67 C-150.19 67 -164.38 67 -179 67 C-179.0928125 61.616875 -179.0928125 61.616875 -179.1875 56.125 C-179.21481201 54.99465332 -179.24212402 53.86430664 -179.27026367 52.69970703 C-179.27775635 51.81138184 -179.28524902 50.92305664 -179.29296875 50.0078125 C-179.31653442 48.64100342 -179.31653442 48.64100342 -179.34057617 47.24658203 C-179.22818604 46.50520996 -179.1157959 45.76383789 -179 45 C-175.14395575 42.42930383 -171.87253657 42.64934944 -167.39453125 42.5859375 C-166.55532639 42.56657135 -165.71612152 42.5472052 -164.85148621 42.5272522 C-162.17192742 42.46748787 -159.4923256 42.42108388 -156.8125 42.375 C-154.99542401 42.3368173 -153.17836606 42.29776539 -151.36132812 42.2578125 C-146.90769868 42.16178897 -142.45398449 42.07774641 -138 42 C-137.98018066 40.82904785 -137.96036133 39.6580957 -137.93994141 38.45166016 C-137.86399919 34.11663926 -137.7752648 29.78195905 -137.68261719 25.44726562 C-137.64428023 23.56940424 -137.60943573 21.69146824 -137.578125 19.81347656 C-137.53257637 17.11756679 -137.47456625 14.42217288 -137.4140625 11.7265625 C-137.40251129 10.88380768 -137.39096008 10.04105286 -137.37905884 9.17276001 C-137.22774341 3.22774341 -137.22774341 3.22774341 -135 1 C-128.07 1 -121.14 1 -114 1 C-113.67 14.86 -113.34 28.72 -113 43 C-109.63328122 44.68335939 -105.827034 44.14154289 -102.125 44.1328125 C-101.24473145 44.13376923 -100.36446289 44.13472595 -99.45751953 44.13571167 C-97.59472584 44.13639276 -95.73192977 44.13454343 -93.86914062 44.13037109 C-91.01166472 44.12502184 -88.154346 44.13031849 -85.296875 44.13671875 C-83.48958299 44.13605796 -81.68229107 44.13477677 -79.875 44.1328125 C-79.01664551 44.13483673 -78.15829102 44.13686096 -77.27392578 44.13894653 C-73.00199198 44.24642678 -73.00199198 44.24642678 -69 43 C-68.98541748 41.83428467 -68.97083496 40.66856934 -68.95581055 39.4675293 C-68.89786883 35.14543878 -68.82063606 30.82387153 -68.73754883 26.50219727 C-68.70427998 24.63118986 -68.67625415 22.76008162 -68.65356445 20.88891602 C-68.62005412 18.20024617 -68.56774135 15.51250202 -68.51171875 12.82421875 C-68.50532883 11.98662521 -68.4989389 11.14903168 -68.49235535 10.28605652 C-68.34363518 4.42127623 -68.34363518 4.42127623 -66.59555054 2.27822876 C-64.56010096 0.64758772 -63.4257978 0.62609587 -60.83984375 0.63671875 C-59.6497168 0.63768555 -59.6497168 0.63768555 -58.43554688 0.63867188 C-57.61119141 0.65478516 -56.78683594 0.67089844 -55.9375 0.6875 C-55.10927734 0.68427734 -54.28105469 0.68105469 -53.42773438 0.67773438 C-47.26712592 0.73287408 -47.26712592 0.73287408 -45 3 C-44.82458528 6.01222907 -44.76858317 8.93387006 -44.8046875 11.9453125 C-44.80670166 12.72962646 -44.80871582 13.51394043 -44.81079102 14.32202148 C-44.82126793 17.25640701 -44.84919048 20.19070928 -44.875 23.125 C-44.91625 29.68375 -44.9575 36.2425 -45 43 C-30.15 43 -15.3 43 0 43 C0 28.81 0 14.62 0 0 Z " fill="#E9E9E9" transform="translate(323,121)"/>
<path d="M0 0 C14.85 0 29.7 0 45 0 C45 14.85 45 29.7 45 45 C30.15 45 15.3 45 0 45 C0 30.15 0 15.3 0 0 Z " fill="#080808" transform="translate(210,256)"/>
<path d="M0 0 C14.52 0 29.04 0 44 0 C44 14.52 44 29.04 44 44 C29.48 44 14.96 44 0 44 C0 29.48 0 14.96 0 0 Z " fill="#030303" transform="translate(279,256)"/>
<path d="M0 0 C14.52 0 29.04 0 44 0 C44 14.52 44 29.04 44 44 C29.48 44 14.96 44 0 44 C0 29.48 0 14.96 0 0 Z " fill="#030303" transform="translate(279,188)"/>
<path d="M0 0 C14.52 0 29.04 0 44 0 C44 14.52 44 29.04 44 44 C29.48 44 14.96 44 0 44 C0 29.48 0 14.96 0 0 Z " fill="#030303" transform="translate(210,188)"/>
<path d="M0 0 C3.47914941 -0.02887814 6.95826831 -0.04675687 10.4375 -0.0625 C11.92733398 -0.07506836 11.92733398 -0.07506836 13.44726562 -0.08789062 C14.39150391 -0.09111328 15.33574219 -0.09433594 16.30859375 -0.09765625 C17.62041626 -0.10551147 17.62041626 -0.10551147 18.95874023 -0.11352539 C21 0 21 0 22 1 C22.08870641 4.02956243 22.11526582 7.0368671 22.09765625 10.06640625 C22.09664917 10.8713855 22.09564209 11.67636475 22.09460449 12.5057373 C22.08935614 15.52467261 22.075395 18.54358767 22.0625 21.5625 C22.041875 28.306875 22.02125 35.05125 22 42 C36.19 42 50.38 42 65 42 C64.88132342 29.29997915 64.88132342 29.29997915 64.72973633 16.6003418 C64.72097457 15.0083069 64.7133299 13.4162653 64.70703125 11.82421875 C64.6840094 10.58412048 64.6840094 10.58412048 64.66052246 9.31896973 C64.65782208 3.42403637 64.65782208 3.42403637 66.39099121 1.27624512 C68.51335412 -0.4071859 69.76408796 -0.34703179 72.44921875 -0.29296875 C73.29677734 -0.28330078 74.14433594 -0.27363281 75.01757812 -0.26367188 C75.89865234 -0.23853516 76.77972656 -0.21339844 77.6875 -0.1875 C78.58017578 -0.17396484 79.47285156 -0.16042969 80.39257812 -0.14648438 C82.59566166 -0.11114079 84.79752582 -0.06180493 87 0 C87 0.33 87 0.66 87 1 C85.72382813 1.04898438 84.44765625 1.09796875 83.1328125 1.1484375 C81.46351928 1.22346191 79.79424954 1.29900988 78.125 1.375 C76.86236328 1.42140625 76.86236328 1.42140625 75.57421875 1.46875 C74.36572266 1.52675781 74.36572266 1.52675781 73.1328125 1.5859375 C72.38918457 1.6173584 71.64555664 1.6487793 70.87939453 1.68115234 C68.75989026 1.85419551 68.75989026 1.85419551 67 4 C66.79065408 6.9138841 66.69886601 9.74044773 66.69140625 12.65625 C66.66625326 14.41797216 66.64085514 16.17969083 66.61523438 17.94140625 C66.58643437 20.72639114 66.56242393 23.51131563 66.54370117 26.29638672 C66.5221233 28.97915696 66.48269699 31.66122162 66.44140625 34.34375 C66.44129044 35.18023071 66.44117462 36.01671143 66.4410553 36.87854004 C66.40063477 39.22460938 66.40063477 39.22460938 66 43 C62.05064486 45.63290343 58.64494248 45.28744926 54.0625 45.265625 C52.7477771 45.26849518 52.7477771 45.26849518 51.40649414 45.27142334 C49.55387078 45.27278399 47.70123784 45.26909594 45.84863281 45.26074219 C43.01085011 45.25004092 40.17370048 45.26064148 37.3359375 45.2734375 C35.53645693 45.27211588 33.73697676 45.26955345 31.9375 45.265625 C31.08744385 45.26967346 30.2373877 45.27372192 29.36157227 45.27789307 C23.34490249 45.22993499 23.34490249 45.22993499 20 43 C19.63923645 41.16500854 19.63923645 41.16500854 19.65942383 38.91748047 C19.65965042 38.07675995 19.65987701 37.23603943 19.66011047 36.36984253 C19.67559433 35.46146637 19.69107819 34.55309021 19.70703125 33.6171875 C19.71127609 32.68778351 19.71552094 31.75837952 19.71989441 30.80081177 C19.73671988 27.82524944 19.77437897 24.85035844 19.8125 21.875 C19.82754184 19.86068685 19.84123112 17.84636311 19.85351562 15.83203125 C19.88408742 10.88755261 19.94280107 5.94452984 20 1 C13.4 1 6.8 1 0 1 C0 0.67 0 0.34 0 0 Z " fill="#707070" transform="translate(189,121)"/>
<path d="M0 0 C13.2 0 26.4 0 40 0 C41.62202834 3.24405669 41.14173614 6.8037265 41.1328125 10.3671875 C41.13376923 11.19832062 41.13472595 12.02945374 41.13571167 12.88577271 C41.13639282 14.64601721 41.13454304 16.40626422 41.13037109 18.16650391 C41.12503539 20.85715411 41.13031128 23.54763635 41.13671875 26.23828125 C41.13605769 27.94791703 41.13477596 29.65755271 41.1328125 31.3671875 C41.13483673 32.17147186 41.13686096 32.97575623 41.13894653 33.80441284 C41.12375442 37.43853044 40.88754182 40.44983273 40 44 C26.14 44 12.28 44 -2 44 C-2 43.67 -2 43.34 -2 43 C11.2 43 24.4 43 38 43 C38 29.14 38 15.28 38 1 C25.46 1 12.92 1 0 1 C0 0.67 0 0.34 0 0 Z " fill="#383838" transform="translate(147,256)"/>
<path d="M0 0 C1.63945963 3.27891925 1.12030178 6.90613534 1.09765625 10.5078125 C1.0962413 11.34843231 1.09482635 12.18905212 1.09336853 13.05514526 C1.08776237 15.74513275 1.07520886 18.43503759 1.0625 21.125 C1.05748579 22.94661338 1.05292275 24.76822807 1.04882812 26.58984375 C1.03779094 31.05992777 1.0205222 35.52994986 1 40 C0.34 40 -0.32 40 -1 40 C-1.33 40.99 -1.66 41.98 -2 43 C-14.87 43 -27.74 43 -41 43 C-41 42.67 -41 42.34 -41 42 C-28.46 41.67 -15.92 41.34 -3 41 C-2.95101562 38.20789063 -2.90203125 35.41578125 -2.8515625 32.5390625 C-2.79758816 29.84174124 -2.74026678 27.14451053 -2.68261719 24.44726562 C-2.64428023 22.56940424 -2.60943573 20.69146824 -2.578125 18.81347656 C-2.53257637 16.11756679 -2.47456625 13.42217288 -2.4140625 10.7265625 C-2.40251129 9.88380768 -2.39096008 9.04105286 -2.37905884 8.17276001 C-2.22774341 2.22774341 -2.22774341 2.22774341 0 0 Z " fill="#898989" transform="translate(188,122)"/>
<path d="M0 0 C12.87 0 25.74 0 39 0 C39 0.33 39 0.66 39 1 C30.41833805 2.64018112 22.03370523 3.23821619 13.3125 3.3125 C12.34425293 3.32990234 11.37600586 3.34730469 10.37841797 3.36523438 C9.46592285 3.36458984 8.55342773 3.36394531 7.61328125 3.36328125 C6.79641846 3.36626221 5.97955566 3.36924316 5.13793945 3.37231445 C3 3 3 3 0 0 Z " fill="#B2B2B2" transform="translate(347,164)"/>
<path d="M0 0 C0.99 0.33 1.98 0.66 3 1 C3 14.2 3 27.4 3 41 C2.01 41 1.02 41 0 41 C0 27.47 0 13.94 0 0 Z " fill="#C4C4C4" transform="translate(187,257)"/>
</svg>
